<?xml version="1.0" encoding="UTF-8"?>
<svg width="30px" height="30px" viewBox="0 0 30 30" version="1.1" xmlns="http://www.w3.org/2000/svg" xmlns:xlink="http://www.w3.org/1999/xlink">
    <!-- Generator: Sketch 52.6 (67491) - http://www.bohemiancoding.com/sketch -->
    <title>address icon</title>
    <desc>Created with Sketch.</desc>
    <defs>
        <linearGradient x1="-1.11022302e-14%" y1="50%" x2="100%" y2="50%" id="linearGradient-1">
            <stop stop-color="#D85434" offset="0%"></stop>
            <stop stop-color="#ED9737" offset="100%"></stop>
        </linearGradient>
    </defs>
    <g id="Web-1920-px" stroke="none" stroke-width="1" fill="none" fill-rule="evenodd">
        <g id="Site-annonce---1920px---v2" transform="translate(-1185.000000, -1221.000000)" fill="url(#linearGradient-1)" fill-rule="nonzero">
            <g id="Shops" transform="translate(375.000000, 1172.000000)">
                <g id="shop">
                    <g id="address-icon" transform="translate(810.000000, 49.000000)">
                        <path d="M11.9824219,26.9371788 L11.9824219,29.9830213 L11.2477112,29.3880782 C11.1341858,29.296072 8.43315123,27.0977882 5.69412234,23.9454846 C1.91574094,19.5968704 0,15.6933737 0,12.34375 L0,12.0117474 C0,5.38844529 5.3752899,0 11.9824219,0 C18.5895538,0 23.9648437,5.38844529 23.9648437,12.0117474 L23.9648437,12.34375 C23.9648437,12.6250459 23.9499664,12.9107012 23.9229584,13.1997981 L21.5796662,11.0568099 C21.0997009,6.17244863 16.9789124,2.34375001 11.9824219,2.34375001 C6.66458133,2.34375001 2.33802797,6.6808921 2.33802797,12.0117474 L2.33802797,12.34375 C2.33802797,18.0040841 9.61326598,24.8563693 11.9824219,26.9371788 Z M19.1718292,25.2537628 L22.6787567,25.2537628 L22.6787567,21.7382526 L19.1718292,21.7382526 L19.1718292,25.2537628 Z M11.9824219,7.03124999 C14.7219086,7.03124999 16.9507599,9.26555618 16.9507599,12.0117474 C16.9507599,14.7579387 14.7219086,16.9922449 11.9824219,16.9922449 C9.2429352,16.9922449 7.01408385,14.7579387 7.01408385,12.0117474 C7.01408385,9.26555618 9.2429352,7.03124999 11.9824219,7.03124999 Z M11.9824219,9.375 C10.5319977,9.375 9.35211182,10.5577735 9.35211182,12.0117474 C9.35211182,13.4654919 10.5319977,14.6484949 11.9824219,14.6484949 C13.4326172,14.6484949 14.6127319,13.4654919 14.6127319,12.0117474 C14.6127319,10.5577735 13.4326172,9.375 11.9824219,9.375 Z M28.4243774,23.6612059 L27.7670288,23.0600679 L27.7670288,26.8226872 C27.7670288,28.5747063 26.344986,30 24.5972443,30 L17.1949768,30 C15.4472351,30 14.0251922,28.5747063 14.0251922,26.8226872 L14.0251922,23.0600679 L13.3678436,23.6612059 L11.7922211,21.9298367 L20.8959961,13.6040749 L30,21.9298367 L28.4243774,23.6612059 Z M25.4290008,20.9218979 L20.8959961,16.7765694 L16.3632202,20.9218979 L16.3632202,26.8224578 C16.3632202,27.2822596 16.7362976,27.65625 17.1949768,27.65625 L24.5972443,27.65625 C25.0559235,27.65625 25.4290008,27.2822596 25.4290008,26.8224578 L25.4290008,20.9218979 Z" id="Shape"></path>
                    </g>
                </g>
            </g>
        </g>
    </g>
</svg>