<?xml version="1.0" encoding="UTF-8"?>
<svg width="30px" height="30px" viewBox="0 0 30 30" version="1.1" xmlns="http://www.w3.org/2000/svg" xmlns:xlink="http://www.w3.org/1999/xlink">
    <!-- Generator: Sketch 52.6 (67491) - http://www.bohemiancoding.com/sketch -->
    <title>star_2 icon</title>
    <desc>Created with Sketch.</desc>
    <defs>
        <linearGradient x1="-1.11022302e-14%" y1="50%" x2="100%" y2="50%" id="linearGradient-1">
            <stop stop-color="#D85434" offset="0%"></stop>
            <stop stop-color="#ED9737" offset="100%"></stop>
        </linearGradient>
    </defs>
    <g id="Web-1920-px" stroke="none" stroke-width="1" fill="none" fill-rule="evenodd">
        <g id="Site-annonce---1920px---v2" transform="translate(-1185.000000, -2302.000000)" fill="url(#linearGradient-1)" fill-rule="nonzero">
            <g id="Shops" transform="translate(375.000000, 1172.000000)">
                <g id="shop-copy-3" transform="translate(0.000000, 1035.000000)">
                    <g id="star_2-icon" transform="translate(810.000000, 95.000000)">
                        <path d="M14.9982842,22.75 L21.8488157,26.409814 L20.6427794,19.0023325 C20.5815592,18.6105319 20.7039995,18.2126093 20.97949,17.9310026 L26.1525902,12.6294497 L19.0571782,11.545876 C18.6470034,11.4846572 18.2919267,11.2152942 18.1143884,10.8418592 L14.9982842,4.19349155 L14.9982842,15.3016528 C14.7819731,20.1447799 14.7819731,22.6275623 14.9982842,22.75 Z M22.8895578,29.8380698 L14.9982842,25.4792874 L7.10701061,29.8441917 C6.69071379,30.0768234 6.17646477,30.0462139 5.78465599,29.7707291 C5.39284722,29.4952442 5.19082082,29.0177372 5.27040698,28.546352 L6.78866598,19.2227204 L0.354431264,12.6233279 C0.0299646223,12.2866242 -0.0863536076,11.7968733 0.0666966949,11.3560976 C0.213624985,10.9091999 0.599311747,10.58474 1.06458467,10.5173993 L9.90477014,9.16446256 L13.871834,0.716260601 C14.0738604,0.281606732 14.5146452,0 14.9982842,0 C15.4819232,0 15.922708,0.281606732 16.1308564,0.716260601 L20.0979203,9.16446256 L28.9381058,10.5173993 C29.4033787,10.5908619 29.7829434,10.9091999 29.9359937,11.3560976 C30.082922,11.8029952 29.9727258,12.292746 29.6482592,12.6233279 L23.2079024,19.2227204 L24.7261614,28.546352 C24.8057476,29.0177372 24.6037212,29.4952442 24.2119124,29.7707291 C23.997642,29.9176543 23.3793188,30.1380422 22.8895578,29.8380698 Z" id="Shape"></path>
                    </g>
                </g>
            </g>
        </g>
    </g>
</svg>